<svg version="1.2" xmlns="http://www.w3.org/2000/svg" viewBox="0 0 344 320" width="344" height="320">
	<title>-e-OBJECTS</title>
	<style>
		tspan { white-space:pre } 
		.t0 { font-size: 60px;text-transform: uppercase;fill: #000000;font-weight: 700;font-family: "Montserrat-Bold", "Montserrat" } 
		.s1 { fill: #000000 } 
		.s2 { fill: none;stroke: #000000;stroke-width: 2.4 } 
	</style>
	<g id="-e-OBJECTS">
		<g id="&lt;Group&gt;">
			<text id="DARUCINI" style="transform: matrix(1,0,0,1,172,216)" >
				<tspan x="-176.3" y="0" class="t0" dx="0" >D</tspan><tspan  y="0" class="t0" dx="0" >A</tspan><tspan  y="0" class="t0" dx="0" >R</tspan><tspan  y="0" class="t0" dx="0" >U</tspan><tspan  y="0" class="t0" dx="0" >C</tspan><tspan  y="0" class="t0" dx="0" >I</tspan><tspan  y="0" class="t0" dx="0" >N</tspan><tspan  y="0" class="t0" dx="0 5" >I
</tspan>
			</text>
		</g>
		<g id="&lt;Group&gt;">
			<path id="&lt;Path&gt;" class="s1" d="m37.6 273c9.9-5.9 20.4-10.6 31.2-14.7 10.7-4.2 21.8-7.5 33-10.3 22.4-5.4 45.6-8.4 68.8-8.2 23.2-0.1 46.4 2.9 69 8.4 22.6 5.6 44.5 14.1 65.2 24.5l35.1 17.6-38.3-8.7c-7-1.6-14.2-3-21.4-4.3q-10.8-1.9-21.6-3.4-21.7-3-43.6-4.1c-14.5-0.7-29.1-0.7-43.6 0.3-14.4 1.2-28.8 3.3-42.7 7.1l-1-7c11.4 0.4 22.4 1.5 33.6 3.1 11.1 1.6 22.1 3.6 33 6.2 10.9 2.6 21.6 5.9 32.1 9.7 10.5 3.8 20.6 8.7 30.3 14l-7.6-3.3c-1.3-0.5-2.6-1.1-3.9-1.6l-3.9-1.5c-2.6-0.9-5.1-1.9-7.8-2.8l-7.9-2.5c-10.7-3-21.4-5.8-32.3-7.7-10.8-2-21.8-3.6-32.7-4.7q-8.3-0.8-16.5-1.2c-5.5-0.4-11.1-0.6-16.5-0.6h-23.8l22.8-6.9c14.4-4.4 29.2-7.1 44.1-8.6 14.9-1.3 29.8-1.6 44.7-1.1 14.9 0.6 29.7 1.9 44.4 3.8 14.8 2 29.4 4.4 44 7.8l-3.3 8.9c-20.1-10.4-41.3-18.4-63.1-24.4-10.9-2.8-21.9-5.3-33.1-6.8-11.2-1.6-22.5-2.8-33.8-3-11.3-0.4-22.7-0.1-34 0.8-11.3 0.9-22.6 2.5-33.8 4.6-11.1 2.1-22.2 4.9-33.1 8.2-10.9 3.5-21.7 7.3-32 12.4z"/>
		</g>
		<path id="&lt;Path&gt;" class="s1" d="m332.1 67.6c2-15.7-56.1-17.2-114.1 23-4.5 3-15 2.3-20 0.3-9.9-3.7-27.1 8.9-45.5 20.6-10.9 7-8.4 13.6-8.4 13.6 0 0 33.9-20.7 35.4-16.9 1.6 3.9-22.6 16.5-32.2 21.7-1.9 1.1-2.8 3.4-2.1 5.5 0.9 2.9 4.3 4.1 6.8 2.5 10.4-6.5 32.8-19.3 34.4-16.5 1.6 2.8-35 22.5-33.5 22.9 6.9 1.5 17.4 0.4 37-10.8 9.8-5.5 18.7-10.8 21.3-18.9 1.7-5.3 5.3-9.9 10.4-12.3 51.8-24.9 104.2-28.3 104.9-28.4 2.4-0.1 4.4-1.7 5.2-3.8 0.3-0.8 0.3-1.6 0.4-2.5z"/>
		<path id="&lt;Compound Path&gt;" fill-rule="evenodd" class="s1" d="m174.8 78.3c-11.1 1.9-21.5 0.7-29.3-2.7-5.1-2.2-10.9-2.6-16.1-0.4-53 22.2-90.4 59.1-90.9 59.6-1.7 1.7-4.2 2.2-6.3 1.4-0.8-0.3-1.6-0.7-2.2-1.4-12.2-16.3 30.4-49.9 92.5-69.9 5.4-1.7 9-6.5 11.1-11.7 3.8-9.8 16.8-18.6 33.3-21.4 21.2-3.6 40.1 3.9 42.3 16.7 2.2 12.9-13.2 26.2-34.4 29.8zm23.6-31.5q-4.9 5.7-10.7 9.7c-3.9 2.7-8.2 4.6-12.6 5.9-4.6 1.2-9.3 2-14 2.3-4.8 0.2-9.6 0-14.5-1.2 4.1 3.1 9.3 4.5 14.4 5 5.1 0.4 10.4-0.1 15.3-1.5 5.1-1.4 9.9-4 13.7-7.5 3.8-3.5 6.9-7.8 8.4-12.7z"/>
		<path id="&lt;Path&gt;" class="s2" d="m136 98.4c0 3.9-3.2 7.1-7.1 7.1-3.9 0-7.1-3.2-7.1-7.1 0-3.9 3.2-7 7.1-7 3.9 0 7.1 3.1 7.1 7z"/>
		<path id="&lt;Path&gt;" class="s2" d="m243.6 46.2c0 5.3-4.3 9.6-9.6 9.6-5.3 0-9.6-4.3-9.6-9.6 0-5.3 4.3-9.6 9.6-9.6 5.3 0 9.6 4.3 9.6 9.6z"/>
		<path id="&lt;Path&gt;" class="s2" d="m104.2 31.8c0 3.5-2.9 6.4-6.4 6.4-3.5 0-6.4-2.9-6.4-6.4 0-3.6 2.9-6.4 6.4-6.4 3.5 0 6.4 2.8 6.4 6.4z"/>
		<path id="&lt;Path&gt;" class="s2" d="m210 6.1c0 2.7-2.2 4.8-4.8 4.8-2.7 0-4.8-2.1-4.8-4.8 0-2.6 2.1-4.8 4.8-4.8 2.6 0 4.8 2.2 4.8 4.8z"/>
		<path id="&lt;Path&gt;" class="s2" d="m104.2 127.9c0 1.8-1.4 3.2-3.2 3.2-1.8 0-3.2-1.4-3.2-3.2 0-1.8 1.4-3.2 3.2-3.2 1.8 0 3.2 1.4 3.2 3.2z"/>
		<g id="&lt;Group&gt;">
			<g id="&lt;Group&gt;">
				<path id="&lt;Compound Path&gt;" class="s1" d="m104.9 300.3q-1.7-0.5-2.9-1.8-1.2-1.3-1.5-3.2-0.3-1.8 0.3-3.4 0.7-1.6 2.2-2.7 1.5-1.1 3.6-1.5 1.7-0.2 3.2 0.1 1.5 0.4 2.6 1.4c-0.7 0.8-1.1 1.1-1.8 1.9q-1.5-1.2-3.5-0.9-1.2 0.2-2.1 0.8-0.9 0.7-1.3 1.7-0.4 1-0.2 2.1 0.2 1.2 0.9 2 0.7 0.8 1.7 1.1 1 0.4 2.2 0.2 1.9-0.3 3-1.9c0.9 0.5 1.3 0.8 2.2 1.4q-0.8 1.2-2.1 2-1.2 0.7-2.9 1-1.9 0.3-3.6-0.3z"/>
				<path id="&lt;Compound Path&gt;" fill-rule="evenodd" class="s1" d="m131 295.3c-2.4 0.2-3.6 0.2-6 0.4-0.4 1.1-0.5 1.7-0.9 2.8-1.2 0.1-1.8 0.2-3 0.3 1.7-5.2 2.7-7.8 4.7-13 1.3-0.1 1.9-0.2 3.1-0.2 2.7 4.8 4 7.3 6.5 12.2-1.3 0.1-1.9 0.1-3.1 0.1-0.5-1-0.8-1.5-1.3-2.6zm-1.1-2.1c-0.9-1.9-1.4-2.8-2.4-4.7-0.7 2-1 3-1.7 5 1.6-0.2 2.5-0.2 4.1-0.3z"/>
				<path id="&lt;Compound Path&gt;" class="s1" d="m146.1 287.5c-1.7 0-2.6 0-4.3 0 0-1 0-1.4 0-2.4 4.7 0 7 0 11.7 0.2-0.1 0.9-0.1 1.4-0.1 2.4-1.7-0.1-2.6-0.1-4.3-0.2 0 4.1-0.1 6.1-0.2 10.2-1.1 0-1.7 0-2.9 0 0-4.1 0-6.1 0.1-10.2z"/>
				<path id="&lt;Compound Path&gt;" class="s1" d="m171.9 297c-0.1 0.9-0.2 1.4-0.3 2.3-3.9-0.5-5.8-0.7-9.8-1 0.4-5 0.6-7.5 1-12.5 4 0.3 6 0.5 10.1 1-0.1 0.9-0.2 1.4-0.3 2.3-2.8-0.3-4.2-0.5-6.9-0.7-0.1 1.1-0.2 1.6-0.3 2.7 2.4 0.2 3.7 0.3 6.1 0.6-0.1 0.9-0.2 1.4-0.3 2.3-2.4-0.3-3.6-0.4-6-0.6-0.1 1.1-0.1 1.7-0.2 2.8 2.7 0.3 4.1 0.4 6.9 0.8z"/>
				<path id="&lt;Compound Path&gt;" fill-rule="evenodd" class="s1" d="m189.1 302c-0.7-1.5-1-2.3-1.7-3.9q-0.1 0-0.2 0c-1-0.2-1.5-0.3-2.6-0.5-0.2 1.4-0.3 2.1-0.5 3.5-1.2-0.2-1.8-0.3-3-0.5 0.8-5 1.2-7.4 2-12.4 2.3 0.4 3.5 0.6 5.7 1q1.8 0.3 3 1.1 1.2 0.8 1.6 2 0.5 1.1 0.2 2.5-0.3 1.3-1.2 2.2-0.8 0.8-2.2 1.1c0.8 1.8 1.2 2.7 2 4.6-1.2-0.3-1.8-0.4-3.1-0.7zm1.1-9.6q-0.6-0.7-1.9-0.9c-1-0.2-1.5-0.3-2.5-0.4-0.3 1.7-0.5 2.5-0.8 4.3 1 0.1 1.5 0.2 2.5 0.4q1.3 0.2 2.1-0.2 0.8-0.4 1-1.4 0.2-1.1-0.4-1.8z"/>
				<path id="&lt;Compound Path&gt;" class="s1" d="m204.4 292.6c1.2 0.3 1.8 0.4 3 0.8-1.3 4.8-1.9 7.2-3.2 12.1-1.1-0.3-1.7-0.5-2.9-0.7 1.3-4.9 1.9-7.3 3.1-12.2z"/>
				<path id="&lt;Compound Path&gt;" class="s1" d="m229.5 300.4c-1.7 4.7-2.6 7-4.3 11.7-0.9-0.3-1.4-0.5-2.3-0.8-1.4-3.7-2.1-5.6-3.6-9.3-1 2.9-1.5 4.3-2.4 7.2-1.1-0.3-1.7-0.5-2.8-0.8 1.5-4.8 2.3-7.2 3.8-12 0.9 0.3 1.4 0.4 2.4 0.8 1.6 3.7 2.4 5.5 3.8 9.3 1-2.9 1.5-4.3 2.5-7.2 1.2 0.4 1.8 0.6 2.9 1.1z"/>
				<path id="&lt;Compound Path&gt;" class="s1" d="m245.5 313.6c1 0.4 1.5 0.7 2.5 1.1-0.9 1.9-1.3 2.8-2.2 4.6q-1.3 0.3-2.7 0.1-1.4-0.2-2.7-0.8-1.8-0.8-2.9-2.2-1.2-1.4-1.4-3.1-0.3-1.8 0.4-3.5 0.7-1.7 2.1-2.7 1.5-1 3.4-1.1 1.9-0.1 3.8 0.8 1.6 0.7 2.7 1.8 1.1 1.2 1.5 2.5c-1 0.3-1.5 0.5-2.5 0.7q-0.7-1.9-2.6-2.7-1.1-0.5-2.2-0.5-1.2 0.1-2 0.7-0.9 0.6-1.4 1.7-0.4 1.1-0.3 2.1 0.1 1.1 0.8 1.9 0.7 0.9 1.8 1.4 1.2 0.5 2.3 0.5c0.7-1.3 1-2 1.6-3.3z"/>
			</g>
		</g>
		<g id="&lt;Group&gt;">
		</g>
		<g id="&lt;Group&gt;">
			<g id="&lt;Group&gt;">
				<g id="&lt;Group&gt;">
				</g>
				<g id="&lt;Group&gt;">
				</g>
				<g id="&lt;Group&gt;">
				</g>
			</g>
		</g>
	</g>
</svg>